<svg xmlns="http://www.w3.org/2000/svg" width="48" height="48" viewBox="0 0 48 48" fill="none">
  <defs>
    <linearGradient id="shieldGrad" x1="8" y1="4" x2="40" y2="44" gradientUnits="userSpaceOnUse">
      <stop offset="0" stop-color="#6366F1"/>
      <stop offset="1" stop-color="#8B5CF6"/>
    </linearGradient>
  </defs>
  <!-- Scaled up ~15% about the canvas center so the glyph reads clearly at small toolbar
       sizes (16/32px) instead of looking small/lost against the browser chrome. -->
  <g transform="translate(24 24) scale(1.15) translate(-24 -24)">
    <path fill="url(#shieldGrad)" d="M24 44s16-8 16-20V10l-16-6-16 6v14c0 12 16 20 16 20z"/>
    <path fill="#fff" transform="translate(13.8 11.8) scale(0.85)"
      d="M12 2a5 5 0 0 0-5 5v3H6a2 2 0 0 0-2 2v8a2 2 0 0 0 2 2h12a2 2 0 0 0 2-2v-8a2 2 0 0 0-2-2h-1V7a5 5 0 0 0-5-5zm0 2a3 3 0 0 1 3 3v3H9V7a3 3 0 0 1 3-3z"/>
  </g>
</svg>
